<svg width="40" height="40" viewBox="0 0 40 40" fill="none" xmlns="http://www.w3.org/2000/svg">
<path d="M9.12891 30.8711C12.1836 33.8659 15.8073 35.3633 20 35.3633C24.1927 35.3633 27.7865 33.8659 30.7812 30.8711C33.8359 27.8164 35.3633 24.1927 35.3633 20C35.3633 18.6823 35.1536 17.2448 34.7344 15.6875C33.4167 15.987 31.9492 16.1367 30.332 16.1367C27.5768 16.1367 24.6719 15.3581 21.6172 13.8008C18.6224 12.1836 16.3464 10.2669 14.7891 8.05078C12.8125 12.8424 9.45833 16.2865 4.72656 18.3828C4.66667 18.7422 4.63672 19.2812 4.63672 20C4.63672 24.1927 6.13411 27.8164 9.12891 30.8711ZM6.43359 6.52344C10.207 2.75 14.7292 0.863281 20 0.863281C25.2708 0.863281 29.763 2.75 33.4766 6.52344C37.25 10.237 39.1367 14.7292 39.1367 20C39.1367 25.2708 37.25 29.793 33.4766 33.5664C29.763 37.2799 25.2708 39.1367 20 39.1367C14.7292 39.1367 10.207 37.2799 6.43359 33.5664C2.72005 29.793 0.863281 25.2708 0.863281 20C0.863281 14.7292 2.72005 10.237 6.43359 6.52344ZM24.043 20.2695C24.5221 19.7904 25.0911 19.5508 25.75 19.5508C26.4089 19.5508 26.9779 19.7904 27.457 20.2695C27.9362 20.6888 28.1758 21.2279 28.1758 21.8867C28.1758 22.5456 27.9362 23.1146 27.457 23.5938C26.9779 24.0729 26.4089 24.3125 25.75 24.3125C25.0911 24.3125 24.5221 24.0729 24.043 23.5938C23.5638 23.1146 23.3242 22.5456 23.3242 21.8867C23.3242 21.2279 23.5638 20.6888 24.043 20.2695ZM12.543 20.2695C13.0221 19.7904 13.5911 19.5508 14.25 19.5508C14.9089 19.5508 15.4779 19.7904 15.957 20.2695C16.4362 20.6888 16.6758 21.2279 16.6758 21.8867C16.6758 22.5456 16.4362 23.1146 15.957 23.5938C15.4779 24.0729 14.9089 24.3125 14.25 24.3125C13.5911 24.3125 13.0221 24.0729 12.543 23.5938C12.0638 23.1146 11.8242 22.5456 11.8242 21.8867C11.8242 21.2279 12.0638 20.6888 12.543 20.2695Z" fill="black"/>
</svg>
